<?xml version="1.0" encoding="UTF-8"?>
<svg id="Capa_1" data-name="Capa 1" xmlns="http://www.w3.org/2000/svg" viewBox="0 0 152.51 87.28">
  <path d="m68.35,0c0,.17-.01.33-.01.5,0,10.61,0,21.21,0,31.82v.53c-7,1.09-13.48,3.51-19.39,7.3-7.61-7.61-15.2-15.19-22.81-22.8.6-.47,1.26-1,1.93-1.5,8.33-6.34,17.53-10.9,27.67-13.57,3.89-1.02,7.84-1.75,11.84-2.19.08,0,.17-.05.25-.07.18,0,.36,0,.54,0Z"/>
  <path d="m84.37,0c.66.1,1.33.2,1.99.29,7.4.98,14.53,2.92,21.38,5.9,6.64,2.89,12.74,6.65,18.38,11.18.02.02.04.04.01.01-7.57,7.57-15.14,15.13-22.73,22.72-5.88-3.77-12.38-6.15-19.4-7.24v-.51c0-10.63,0-21.26,0-31.89,0-.15,0-.31-.01-.46.13,0,.26,0,.38,0Z"/>
  <path d="m47.41,70.83c.1-3.95,1.08-7.6,3.16-10.93,1.85-2.95,4.32-5.28,7.17-7.23,4.22-2.89,8.91-4.53,13.98-5.2,6.09-.81,12.34.05,17.97,2.51,5.32,2.32,9.66,5.73,12.54,10.72,1.7,2.94,2.56,6.12,2.69,9.51,0,.15,0,.31,0,.46,0,.05-.01.1-.03.19-.81,0-1.63,0-2.44,0-3.39.02-6.79-.01-10.18.09-2.75.08-5.41.68-7.92,1.86-3.72,1.74-6.03,4.68-7.07,8.6-.41,1.53-.59,3.13-.87,4.69-.07.4-.14.79-.29,1.19-.08-.76-.15-1.52-.25-2.28-.33-2.56-.98-5.03-2.33-7.26-2.36-3.93-6.26-5.79-10.99-6.54-1.15-.18-2.31-.25-3.47-.25-2.92,0-5.84-.05-8.76-.07-.96,0-1.93-.02-2.89-.03l-.02-.02Z"/>
  <path d="m141.22,70.83h-17.24c-1.3-7.37-4.22-14.04-8.77-19.94,7.42-7.41,14.81-14.81,22.24-22.23,6.8,8.4,11.67,17.62,14.6,27.66,2.12,7.25-3.28,14.51-10.83,14.51Z"/>
  <path d="m14.82,28.67c7.44,7.43,14.85,14.84,22.28,22.27-4.56,5.88-7.55,12.51-8.9,19.87H11.86c-7.91,0-13.64-7.62-11.36-15.19,2.94-9.75,7.7-18.73,14.32-26.94Z"/>
</svg>